<svg width="138" height="89" viewBox="0 0 138 89" fill="none" xmlns="http://www.w3.org/2000/svg">
<path d="M65.875 89H62.4668L57.4277 80.1523V89H54V74.7812H57.4277L62.457 83.6289V74.7812H65.875V89Z" fill="#5CA4EF"/>
<path d="M78.9121 77.4277H74.6445V89H71.2168V77.4277H67.0273V74.7812H78.9121V77.4277Z" fill="#5CA4EF"/>
<path d="M84.0195 89H80.6016V74.7812H84.0195V89Z" fill="#5CA4EF"/>
<path d="M87.9978 62.2512C87.5149 62.3432 86.7025 62.4581 85.5759 62.5884C84.3702 62.7305 83.1571 62.7996 81.9431 62.7954C79.1891 62.7954 77.2935 61.9548 76.2563 60.2738C75.219 58.5928 74.7081 56.0049 74.7234 52.51V15.4307H83.5526V52.2188C83.49 52.9891 83.6272 53.7626 83.9511 54.4644C84.1495 54.7057 84.4069 54.8917 84.6982 55.0044C84.9895 55.1172 85.305 55.1529 85.6142 55.1082C86.0939 55.1076 86.573 55.0717 87.0474 55.0009C87.3696 54.9623 87.6895 54.906 88.0055 54.8323L87.9978 62.2512Z" fill="#5CA4EF"/>
<path d="M93.9912 73.8776V28.8659H101.18L101.839 31.6173C102.856 30.5908 104.054 29.7618 105.373 29.1724C106.84 28.5376 108.426 28.2265 110.025 28.2604C111.654 28.2272 113.277 28.4867 114.815 29.0268C116.166 29.5225 117.345 30.3981 118.21 31.5483C119.201 32.9445 119.883 34.5356 120.21 36.2158C120.692 38.6146 120.913 41.0583 120.87 43.5045C120.922 46.6163 120.644 49.7248 120.042 52.7781C119.631 54.9688 118.721 57.0354 117.382 58.8175C116.134 60.3628 114.453 61.4998 112.554 62.0825C110.179 62.7818 107.71 63.1102 105.235 63.0558H104.039C103.639 63.0557 103.24 63.0327 102.843 62.9868V73.87L93.9912 73.8776ZM107.695 35.9169C107.02 35.8983 106.351 36.0369 105.739 36.3215C105.127 36.6061 104.59 37.0291 104.169 37.5571C103.331 38.5032 102.86 39.719 102.843 40.983V55.269C103.326 55.315 103.817 55.3456 104.307 55.3686C104.798 55.3916 105.258 55.3686 105.702 55.3686C106.741 55.4005 107.779 55.2527 108.768 54.9318C109.587 54.6261 110.264 54.0283 110.668 53.2533C111.204 52.1825 111.531 51.0201 111.634 49.8274C111.83 47.9435 111.917 46.0499 111.895 44.1559C111.913 42.7634 111.847 41.371 111.695 39.9866C111.623 39.1098 111.387 38.2544 110.998 37.4651C110.719 36.917 110.262 36.4795 109.703 36.2235C109.06 35.9906 108.378 35.8864 107.695 35.9169Z" fill="#5CA4EF"/>
<path d="M128.526 62.4581V30.1152H136.374L137.378 62.4581H128.526Z" fill="#5CA4EF"/>
<path d="M137.685 15.055C138.13 16.4114 138.046 17.8858 137.451 19.1832C136.855 20.4807 135.792 21.5054 134.473 22.0524C133.841 22.3079 133.162 22.4307 132.481 22.4133C131.799 22.3959 131.127 22.2386 130.509 21.9512C129.89 21.6637 129.337 21.2523 128.884 20.7424C128.431 20.2325 128.087 19.6349 127.874 18.9867C127.419 17.6272 127.496 16.1457 128.089 14.8403C128.682 13.535 129.747 12.5026 131.07 11.951C131.706 11.689 132.389 11.5622 133.076 11.5786C133.763 11.5949 134.439 11.7542 135.061 12.0462C135.683 12.3381 136.238 12.7565 136.69 13.2745C137.141 13.7925 137.48 14.3989 137.685 15.055Z" fill="#5CA4EF"/>
<path d="M61.4952 0.516108V5.77374C61.4952 5.77374 20.1086 2.21756 20.1086 31.7094C20.1086 59.6683 56.8967 56.4877 60.4069 57.0012V62.7646C60.4069 62.7646 0.733521 69.8617 0.733521 32.0542C0.733521 -3.06307 58.1843 -0.587535 61.4952 0.516108Z" fill="#5CA4EF"/>
<path d="M30.3324 31.0349C30.3324 31.0349 56.9731 19.8759 63.8556 27.9692C70.6307 35.9323 55.8312 56.1045 11.4402 72.4215C-29.18 87.2977 51.4243 60.2125 51.4243 35.4648C51.4243 29.7014 30.6467 31.2265 30.3324 31.0579V31.0349Z" fill="#9FCFF8"/>
</svg>
