<svg width="109" height="93" viewBox="0 0 109 93" fill="none" xmlns="http://www.w3.org/2000/svg">
<path d="M109 46.2985C109 40.8244 107.362 35.5773 104.132 30.6978C101.231 26.3183 97.1677 22.4417 92.0552 19.1742C82.1828 12.8684 69.2069 9.39431 55.5207 9.39431C50.9491 9.39431 46.4426 9.7806 42.072 10.5464C39.3608 8.00801 36.1861 5.72434 32.827 3.91937C14.8818 -4.77834 0 3.71494 0 3.71494C0 3.71494 13.8362 15.0813 11.5862 25.044C5.39657 31.185 2.04091 38.5897 2.04091 46.2985C2.04091 46.3223 2.04219 46.3475 2.04219 46.3722C2.04219 46.3964 2.04091 46.4203 2.04091 46.4463C2.04091 54.1551 5.39529 61.5597 11.5862 67.6995C13.8362 77.663 0 89.0298 0 89.0298C0 89.0298 14.8818 97.5218 32.827 88.8254C36.1857 87.0204 39.3595 84.7355 42.072 82.1984C46.4435 82.9633 50.9491 83.3492 55.5207 83.3492C69.2078 83.3492 82.1824 79.8777 92.0552 73.5714C97.1677 70.3043 101.231 66.4291 104.132 62.0474C107.362 57.1687 109 51.9191 109 46.4476C109 46.422 108.999 46.3986 108.999 46.3734L109 46.2985Z" fill="#C1272D"/>
<path d="M55.5207 17.1333C80.8638 17.1333 101.41 30.257 101.41 46.4454C101.41 62.6326 80.8638 75.7571 55.5207 75.7571C49.8775 75.7571 44.4728 75.1046 39.4804 73.9151C34.4059 80.0191 23.243 88.5064 12.3988 85.7636C15.9261 81.9752 21.1519 75.5735 20.0335 65.0283C13.5334 59.9716 9.63214 53.4992 9.63214 46.4454C9.63086 30.2557 30.1767 17.1333 55.5207 17.1333Z" fill="white"/>
<path d="M55.5207 53.4847C58.8879 53.4847 61.617 50.7555 61.617 47.3884C61.617 44.0216 58.8879 41.2925 55.5207 41.2925C52.154 41.2925 49.4248 44.0216 49.4248 47.3884C49.4248 50.7555 52.154 53.4847 55.5207 53.4847ZM76.7152 53.4847C80.0819 53.4847 82.8115 50.7555 82.8115 47.3884C82.8115 44.0216 80.0819 41.2925 76.7152 41.2925C73.3484 41.2925 70.6193 44.0216 70.6193 47.3884C70.6193 50.7555 73.3484 53.4847 76.7152 53.4847ZM34.3254 53.4834C37.6917 53.4834 40.4204 50.7547 40.4204 47.3888C40.4204 44.0225 37.6917 41.2933 34.3258 41.2933C30.9591 41.2933 28.2303 44.0225 28.2303 47.3884C28.2303 50.7547 30.9591 53.4834 34.3254 53.4834Z" fill="#C1272D"/>
<path d="M55.5207 71.9006C49.8775 71.9006 44.4729 71.3341 39.4805 70.3035C35 74.9752 25.7716 81.255 16.208 81.0242C14.9478 82.9339 13.5781 84.4953 12.3988 85.7628C23.2431 88.5056 34.4059 80.0191 39.4805 73.9142C44.4733 75.1046 49.8784 75.7563 55.5207 75.7563C80.6602 75.7563 101.076 62.8404 101.401 46.8313C101.076 60.708 80.6602 71.9002 55.5207 71.9002V71.9006Z" fill="#CCCCCC"/>
</svg>
